<svg width="128" height="128" viewBox="0 0 128 128" fill="none" xmlns="http://www.w3.org/2000/svg">
<path d="M54.0219 78.0859C54.1908 72.617 54.9257 68.3977 56.1316 65.3282L56.1352 65.3189C57.5205 61.7506 59.7684 58.6465 62.9337 55.9944C66.4817 53.0218 69.2648 50.2335 71.2054 47.6298C73.3398 44.7827 74.4453 41.5905 74.4453 38.1172C74.4453 34.2768 73.6268 30.9299 71.5548 28.5232C69.4211 26.0449 66.3427 25 62.8047 25C59.2911 25 56.3037 26.3297 54.071 28.9848C52.3442 31.0383 51.3401 33.5725 50.939 36.4609H32.0786C32.6266 28.8943 35.3258 23.1436 40.0034 18.9565L40.0034 18.9565L40.0117 18.949C45.2273 14.2381 52.7097 11.7188 62.8047 11.7188C72.8996 11.7188 80.3324 14.0508 85.4497 18.3712L85.4574 18.3777C90.5495 22.6417 93.2109 28.7452 93.2109 37.0625C93.2109 40.6126 92.5076 43.7732 91.1415 46.5882C89.7596 49.4356 87.485 52.4574 84.2141 55.6418L76.1486 63.1463L76.1347 63.1592L76.121 63.1724C73.6286 65.563 71.7895 68.1335 70.7362 70.9013C69.9393 72.9597 69.45 75.3686 69.2248 78.0859H54.0219ZM53.9868 95.3236L53.989 95.3216C56.0124 93.5231 58.5415 92.5781 61.75 92.5781C64.9591 92.5781 67.4544 93.5229 69.4234 95.3061L69.4416 95.3227L69.4603 95.3389C71.4253 97.0492 72.3984 99.1875 72.3984 101.961C72.3984 104.735 71.4241 106.907 69.4423 108.669C67.475 110.413 64.9731 111.344 61.75 111.344C58.5372 111.344 56.007 110.419 53.988 108.669C52.0596 106.915 51.1016 104.743 51.1016 101.961C51.1016 99.171 52.0641 97.0287 53.9868 95.3236Z" fill="#4477FF" stroke="black" stroke-width="5"/>
</svg>
