<svg width="200" height="200" viewBox="0 0 200 200" fill="none" xmlns="http://www.w3.org/2000/svg">
<circle r="42.1395" transform="matrix(-1 0 0 1 115.202 66.1395)" fill="black"/>
<path d="M59.0155 175H186.605C184.065 137.423 152.437 114.407 105.837 118.814V159.783H59.0155V175Z" fill="black"/>
<path d="M50.4806 122.326H93.3023C94.4069 122.326 95.3023 123.221 95.3023 124.326V147.248C95.3023 148.353 94.4069 149.248 93.3023 149.248H50.4806C49.3761 149.248 48.4806 150.143 48.4806 151.248V172.415C48.4806 173.519 47.5852 174.415 46.4806 174.415H44.0239C43.504 174.415 43.0045 174.212 42.6313 173.85L5.4574 137.786C4.6561 137.009 4.64639 135.726 5.43581 134.936L42.6274 97.7447C43.0025 97.3696 43.5112 97.1589 44.0416 97.1589H46.4806C47.5852 97.1589 48.4806 98.0544 48.4806 99.1589V120.326C48.4806 121.43 49.3761 122.326 50.4806 122.326Z" fill="black"/>
</svg>
