<svg width="200" height="200" viewBox="0 0 200 200" fill="none" xmlns="http://www.w3.org/2000/svg">
<path fill-rule="evenodd" clip-rule="evenodd" d="M47.5 64L54.5 164.5C55.4742 172.487 57.9539 174.718 65 175.5H135C142.046 174.718 144.526 172.487 145.5 164.5L152.5 64C152.17 62.3553 151.601 61.6488 149.5 61H50.5C48.3988 61.6488 47.8303 62.3553 47.5 64ZM71.4701 157L68.5 74.5C69.5578 71.3305 73.8445 71.003 75.5 74.5L77.9701 157C76.6655 161.35 72.9033 161.711 71.4701 157ZM128.536 157L131.5 74.5C130.442 71.3305 126.156 71.003 124.5 74.5L122.036 157C123.34 161.35 127.103 161.711 128.536 157ZM96.5 157V74.4999C97.2 70.533 102.758 70.7031 103.5 74.4999V157C102.701 162.173 97.0516 162.161 96.5 157Z" fill="black"/>
<path fill-rule="evenodd" clip-rule="evenodd" d="M100.498 53.5H100H44.4983C41.5519 51.9959 41.8399 50.0631 42.2642 47.2145C42.3444 46.6767 42.4293 46.1063 42.4983 45.5C44.629 40.3621 46.2027 38.8999 50.9983 37.5H69.9984V30.5C72.45 23.243 75.3336 21.1357 82.4984 20H100H100.498H118C125.165 21.1357 128.048 23.243 130.5 30.5V37.5H149.5C154.296 38.8999 155.869 40.3621 158 45.5C158.069 46.1063 158.154 46.6767 158.234 47.2145C158.658 50.0631 158.946 51.9959 156 53.5H100.498ZM100 37.5H78.4984V32.5C79.2469 29.7015 80.3208 28.8049 83.4984 28.5H100H100.498H117C120.178 28.8049 121.251 29.7015 122 32.5V37.5H100.498H100Z" fill="black"/>
</svg>
