<svg width="512" height="512" viewBox="0 0 512 512" fill="none" xmlns="http://www.w3.org/2000/svg">
<g clip-path="url(#clip0)">
<path d="M78.1163 263.472L30.033 180.033L113.472 228.116L259.843 374.487L224.487 409.843L78.1163 263.472Z" fill="black"/>
<path d="M252.772 402.772L241.979 391.979L179.233 435.299C179.233 435.299 187.718 448.026 202.921 442.016C218.123 436.006 225.548 429.995 228.2 427.344L252.772 402.772Z" fill="black"/>
<path d="M252.772 402.772L241.979 391.979L285.299 329.233C285.299 329.233 298.026 337.718 292.016 352.921C286.006 368.123 279.995 375.548 277.344 378.2L252.772 402.772Z" fill="black"/>
<path d="M245.701 409.843L259.843 395.701L302.269 438.127L288.127 452.269L245.701 409.843Z" fill="black"/>
<circle cx="295.198" cy="445.198" r="20" transform="rotate(-45 295.198 445.198)" fill="black"/>
<ellipse cx="376" cy="71.3846" rx="16.1538" ry="15.3846" fill="black"/>
<ellipse cx="268.692" cy="105.451" rx="12.6923" ry="12.0879" fill="black"/>
<ellipse cx="483.308" cy="105.451" rx="12.6923" ry="12.0879" fill="black"/>
<path d="M477.538 123.287L461.385 223.033C395.032 206.795 357.646 206.605 290.615 223.033L274.461 123.287L335.615 174.268L376 93.3626L416.385 174.268L477.538 123.287Z" fill="black" stroke="black"/>
<path d="M457.923 236.22C393.036 219.641 357.81 219.497 292.923 236.22V256C357.81 239.278 393.036 239.421 457.923 256V236.22Z" fill="black" stroke="black"/>
</g>
<defs>
<clipPath id="clip0">
<rect width="512" height="512" fill="white"/>
</clipPath>
</defs>
</svg>
