<svg width="200" height="200" viewBox="0 0 200 200" fill="none" xmlns="http://www.w3.org/2000/svg">
<path d="M180 100C180 84.1775 175.308 68.7103 166.518 55.5544C157.727 42.3984 145.233 32.1446 130.615 26.0896C115.997 20.0346 99.9113 18.4504 84.3928 21.5372C68.8743 24.624 54.6197 32.2433 43.4315 43.4315C32.2433 54.6197 24.624 68.8743 21.5372 84.3928C18.4504 99.9113 20.0346 115.997 26.0896 130.615C32.1446 145.233 42.3984 157.727 55.5544 166.518C68.7103 175.308 84.1775 180 100 180L100 157.629C88.6021 157.629 77.4602 154.249 67.9832 147.917C58.5062 141.584 51.1198 132.584 46.758 122.054C42.3962 111.523 41.255 99.9361 43.4786 88.7572C45.7022 77.5783 51.1908 67.3099 59.2503 59.2503C67.3098 51.1908 77.5783 45.7022 88.7572 43.4786C99.9361 41.255 111.523 42.3962 122.054 46.758C132.584 51.1198 141.584 58.5062 147.917 67.9832C154.249 77.4602 157.629 88.6021 157.629 100H180Z" fill="black"/>
<path d="M168.5 141L193.182 99.75H143.818L168.5 141Z" fill="black"/>
</svg>
